<?xml version="1.0" standalone="no"?>
<!DOCTYPE svg PUBLIC "-//W3C//DTD SVG 1.1//EN" "http://www.w3.org/Graphics/SVG/1.1/DTD/svg11.dtd" >
<svg xmlns="http://www.w3.org/2000/svg" xmlns:xlink="http://www.w3.org/1999/xlink" version="1.1">
<metadata></metadata>
<defs>
<font id="visitor_tt2_brkregular" horiz-adv-x="956" >
<font-face units-per-em="2048" ascent="1638" descent="-410" />
<missing-glyph horiz-adv-x="500" />
<glyph horiz-adv-x="0" />
<glyph horiz-adv-x="682" />
<glyph unicode=" " />
<glyph unicode="!" horiz-adv-x="319" d="M0 0h160v158h-160v-158zM0 317h160v478h-160v-478z" />
<glyph unicode="&#x22;" horiz-adv-x="636" d="M0 477h158v318h-158v-318zM317 477h160v318h-160v-318z" />
<glyph unicode="#" d="M0 158h158v-158h159v158h160v-158h160v158h160v159h-160v160h160v160h-160v158h-160v-158h-160v158h-159v-158h-158v-160h158v-160h-158v-159zM317 317v160h160v-160h-160z" />
<glyph unicode="$" d="M0 0h319v-160h160v160h318v477h-637v160h637v158h-318v159h-160v-159h-319v-478h637v-159h-637v-158z" />
<glyph unicode="%" d="M0 0h160v158h-160v-158zM0 477h319v318h-319v-318zM160 158h159v159h-159v-159zM319 317h158v160h-158v-160zM477 0h320v317h-320v-317zM477 477h160v160h-160v-160zM637 637h160v158h-160v-158z" />
<glyph unicode="&#x26;" d="M0 0h317v-160h160v160h320v158h-639v159h319v160h-319v160h639v158h-320v159h-160v-159h-317v-795z" />
<glyph unicode="'" horiz-adv-x="319" d="M0 477h160v318h-160v-318z" />
<glyph unicode="(" horiz-adv-x="477" d="M0 158h160v479h-160v-479zM160 0h157v158h-157v-158zM160 637h157v158h-157v-158z" />
<glyph unicode=")" horiz-adv-x="479" d="M0 0h160v158h-160v-158zM0 637h160v158h-160v-158zM160 158h159v479h-159v-479z" />
<glyph unicode="*" d="M0 317h160v160h-160v-160zM0 637h160v158h-160v-158zM160 477h159v-160h158v160h160v160h-160v158h-158v-158h-159v-160zM637 317h160v160h-160v-160zM637 637h160v158h-160v-158z" />
<glyph unicode="+" d="M0 317h317v-317h160v317h320v160h-320v318h-160v-318h-317v-160z" />
<glyph unicode="," horiz-adv-x="319" d="M0 158v-318h160v318h-160z" />
<glyph unicode="-" d="M0 317h797v160h-797v-160z" />
<glyph unicode="." horiz-adv-x="317" d="M0 0h158v158h-158v-158z" />
<glyph unicode="/" d="M0 0h160v158h-160v-158zM160 158h159v159h-159v-159zM319 317h158v160h-158v-160zM477 477h160v160h-160v-160zM637 637h160v158h-160v-158z" />
<glyph unicode="0" d="M0 0h797v795h-797v-795zM160 158v479h477v-479h-477z" />
<glyph unicode="1" horiz-adv-x="479" d="M0 637h160v-637h159v795h-319v-158z" />
<glyph unicode="2" d="M0 0h797v158h-637v159h637v478h-797v-158h637v-160h-637v-477z" />
<glyph unicode="3" d="M0 0h797v795h-797v-158h639v-160h-320v-160h320v-159h-639v-158z" />
<glyph unicode="4" d="M0 317h637v-317h160v795h-160v-318h-477v318h-160v-478z" />
<glyph unicode="5" d="M0 0h797v477h-639v160h639v158h-797v-478h637v-159h-637v-158z" />
<glyph unicode="6" d="M0 0h797v477h-637v160h637v158h-797v-795zM160 158v159h477v-159h-477z" />
<glyph unicode="7" d="M0 637h637v-637h160v795h-797v-158z" />
<glyph unicode="8" d="M0 0h797v795h-797v-795zM158 158v159h479v-159h-479zM158 477v160h479v-160h-479z" />
<glyph unicode="9" d="M0 317h637v-317h160v795h-797v-478zM160 477v160h477v-160h-477z" />
<glyph unicode=":" horiz-adv-x="319" d="M0 0h160v158h-160v-158zM0 637h160v158h-160v-158z" />
<glyph unicode=";" horiz-adv-x="317" d="M0 158v-318h158v318h-158zM0 637h158v158h-158v-158z" />
<glyph unicode="&#x3c;" horiz-adv-x="636" d="M0 317h160v160h-160v-160zM160 158h159v159h-159v-159zM160 477h159v160h-159v-160zM319 0h158v158h-158v-158zM319 637h158v158h-158v-158z" />
<glyph unicode="=" d="M0 158h797v159h-797v-159zM0 477h797v160h-797v-160z" />
<glyph unicode="&#x3e;" horiz-adv-x="636" d="M0 0h160v158h-160v-158zM0 637h160v158h-160v-158zM160 158h159v159h-159v-159zM160 477h159v160h-159v-160zM319 317h158v160h-158v-160z" />
<glyph unicode="?" d="M0 637h637v-160h-318v-160h478v478h-797v-158zM319 0h158v158h-158v-158z" />
<glyph unicode="@" d="M0 0h160v637h477v-160h-320v-477h480v795h-797v-795zM477 158v159h160v-159h-160z" />
<glyph unicode="A" d="M0 0h160v317h479v-317h158v795h-797v-795zM160 477v160h479v-160h-479z" />
<glyph unicode="B" d="M0 0h637v158h-477v159h477v-159h160v479h-160v-160h-477v160h477v158h-637v-795z" />
<glyph unicode="C" d="M0 0h797v158h-637v479h637v158h-797v-795z" />
<glyph unicode="D" d="M0 0h639v158h-479v479h479v158h-639v-795zM639 158h158v479h-158v-479z" />
<glyph unicode="E" d="M0 0h797v158h-637v159h317v160h-317v160h637v158h-797v-795z" />
<glyph unicode="F" d="M0 0h160v317h317v160h-317v160h637v158h-797v-795z" />
<glyph unicode="G" d="M0 0h797v477h-478v-160h320v-159h-479v479h637v158h-797v-795z" />
<glyph unicode="H" d="M0 0h160v317h477v-317h160v795h-160v-318h-477v318h-160v-795z" />
<glyph unicode="I" d="M0 0h797v158h-320v479h320v158h-797v-158h317v-479h-317v-158z" />
<glyph unicode="J" d="M0 0h797v795h-160v-637h-477v159h-160v-317z" />
<glyph unicode="K" d="M0 0h160v317h317v160h-317v318h-160v-795zM477 158h160v159h-160v-159zM477 477h160v160h-160v-160zM637 0h160v158h-160v-158zM637 637h160v158h-160v-158z" />
<glyph unicode="L" d="M0 0h797v158h-639v637h-158v-795z" />
<glyph unicode="M" d="M0 0h160v477h159v160h-159v158h-160v-795zM319 317h160v160h-160v-160zM479 477h158v-477h160v795h-160v-158h-158v-160z" />
<glyph unicode="N" d="M0 0h160v477h159v160h-159v158h-160v-795zM319 317h158v160h-158v-160zM477 158h160v-158h160v795h-160v-478h-160v-159z" />
<glyph unicode="O" d="M0 0h797v795h-797v-795zM158 158v479h479v-479h-479z" />
<glyph unicode="P" d="M0 0h160v317h637v320h-160v-160h-477v160h477v158h-637v-795z" />
<glyph unicode="Q" d="M0 0h319v-160h158v160h320v795h-797v-795zM160 158v479h477v-479h-160v159h-158v-159h-159z" />
<glyph unicode="R" d="M0 0h160v317h317v-159h160v159h160v320h-160v-160h-477v160h477v158h-637v-795zM637 0h160v158h-160v-158z" />
<glyph unicode="S" d="M0 0h797v477h-639v160h639v158h-797v-478h637v-159h-637v-158z" />
<glyph unicode="T" d="M0 637h319v-637h160v637h318v158h-797v-158z" />
<glyph unicode="U" d="M0 0h797v795h-160v-637h-477v637h-160v-795z" />
<glyph unicode="V" d="M0 317h158v478h-158v-478zM158 158h159v159h-159v-159zM317 0h160v158h-160v-158zM477 158h160v159h-160v-159zM637 317h160v478h-160v-478z" />
<glyph unicode="W" d="M0 0h160v158h159v159h-159v478h-160v-795zM319 317h160v160h-160v-160zM479 158h158v-158h160v795h-160v-478h-158v-159z" />
<glyph unicode="X" d="M0 0h160v158h-160v-158zM0 637h160v158h-160v-158zM160 158h159v159h-159v-159zM160 477h159v160h-159v-160zM319 317h158v160h-158v-160zM477 158h160v159h-160v-159zM477 477h160v160h-160v-160zM637 0h160v158h-160v-158zM637 637h160v158h-160v-158z" />
<glyph unicode="Y" d="M0 317h317v-317h160v317h320v478h-160v-318h-479v318h-158v-478z" />
<glyph unicode="Z" d="M0 0h797v158h-478v159h-159v-159h-160v-158zM0 637h479v-160h158v160h160v158h-797v-158zM319 317h160v160h-160v-160z" />
<glyph unicode="[" horiz-adv-x="479" d="M0 0h319v158h-159v479h159v158h-319v-795z" />
<glyph unicode="\" d="M0 637h160v158h-160v-158zM160 477h159v160h-159v-160zM319 317h158v160h-158v-160zM477 158h160v159h-160v-159zM637 0h160v158h-160v-158z" />
<glyph unicode="]" horiz-adv-x="477" d="M0 0h317v795h-317v-158h158v-479h-158v-158z" />
<glyph unicode="^" horiz-adv-x="636" d="M0 477h160v160h-160v-160zM160 637h159v158h-159v-158zM319 477h158v160h-158v-160z" />
<glyph unicode="_" d="M0 -160v-159h797v159h-797z" />
<glyph unicode="`" horiz-adv-x="319" d="M0 477h160v318h-160v-318z" />
<glyph unicode="a" d="M0 0h160v317h477v-317h160v795h-797v-795zM160 477v160h477v-160h-477z" />
<glyph unicode="b" d="M0 0h797v317h-160v-159h-477v159h477v160h-477v160h477v-160h160v318h-797v-795z" />
<glyph unicode="c" d="M0 0h797v158h-639v479h639v158h-797v-795z" />
<glyph unicode="d" d="M0 0h637v158h-477v479h477v158h-637v-795zM637 158h160v479h-160v-479z" />
<glyph unicode="e" d="M0 0h797v158h-637v159h317v160h-317v160h637v158h-797v-795z" />
<glyph unicode="f" d="M0 0h160v317h317v160h-317v160h637v158h-797v-795z" />
<glyph unicode="g" d="M0 0h797v477h-480v-160h320v-159h-479v479h639v158h-797v-795z" />
<glyph unicode="h" d="M0 0h160v317h477v-317h160v795h-160v-318h-477v318h-160v-795z" />
<glyph unicode="i" horiz-adv-x="319" d="M0 0h160v795h-160v-795z" />
<glyph unicode="j" horiz-adv-x="954" d="M0 0h795v795h-158v-637h-479v159h-158v-317z" />
<glyph unicode="k" d="M0 0h160v317h319v160h-319v318h-160v-795zM479 158h158v159h-158v-159zM479 477h158v160h-158v-160zM637 0h160v158h-160v-158zM637 637h160v158h-160v-158z" />
<glyph unicode="l" d="M0 0h797v158h-637v637h-160v-795z" />
<glyph unicode="m" horiz-adv-x="954" d="M0 0h158v637h159v-637h160v637h160v-637h158v795h-795v-795z" />
<glyph unicode="n" d="M0 0h160v637h477v-637h160v795h-797v-795z" />
<glyph unicode="o" d="M0 0h797v795h-797v-795zM160 158v479h477v-479h-477z" />
<glyph unicode="p" d="M0 0h160v317h637v478h-797v-795zM160 477v160h477v-160h-477z" />
<glyph unicode="q" d="M0 0h317v-160h160v160h320v795h-797v-795zM158 158v479h479v-479h-160v159h-160v-159h-159z" />
<glyph unicode="r" d="M0 0h160v317h319v-159h158v159h160v478h-797v-795zM160 477v160h477v-160h-477zM637 0h160v158h-160v-158z" />
<glyph unicode="s" d="M0 0h797v477h-637v160h637v158h-797v-478h637v-159h-637v-158z" />
<glyph unicode="t" d="M0 637h317v-637h160v637h320v158h-797v-158z" />
<glyph unicode="u" d="M0 0h797v795h-160v-637h-477v637h-160v-795z" />
<glyph unicode="v" d="M0 317h160v478h-160v-478zM160 158h159v159h-159v-159zM319 0h158v158h-158v-158zM477 158h160v159h-160v-159zM637 317h160v478h-160v-478z" />
<glyph unicode="w" d="M0 0h797v795h-160v-637h-160v637h-160v-637h-159v637h-158v-795z" />
<glyph unicode="x" d="M0 0h160v158h-160v-158zM0 637h160v158h-160v-158zM160 158h159v159h-159v-159zM160 477h159v160h-159v-160zM319 317h160v160h-160v-160zM479 158h158v159h-158v-159zM479 477h158v160h-158v-160zM637 0h160v158h-160v-158zM637 637h160v158h-160v-158z" />
<glyph unicode="y" d="M0 637h160v158h-160v-158zM160 477h159v160h-159v-160zM319 0h158v477h-158v-477zM477 477h160v160h-160v-160zM637 637h160v158h-160v-158z" />
<glyph unicode="z" d="M0 0h797v158h-478v159h-159v-159h-160v-158zM0 637h477v-160h160v160h160v158h-797v-158zM319 317h158v160h-158v-160z" />
<glyph unicode="{" horiz-adv-x="636" d="M0 317h158v-317h319v158h-160v479h160v158h-319v-318h-158v-160z" />
<glyph unicode="|" horiz-adv-x="319" d="M0 -160h160v1114h-160v-1114z" />
<glyph unicode="}" horiz-adv-x="638" d="M0 0h319v317h160v160h-160v318h-319v-158h160v-479h-160v-158z" />
<glyph unicode="~" d="M0 317h160v160h159v-319h478v319h-158v-160h-160v320h-479v-320z" />
<glyph d="M0 0h797v795h-797v-795zM160 158v479h477v-479h-477zM319 317h158v160h-158v-160z" />
<glyph d="M0 0h797v795h-797v-795zM160 158v479h477v-479h-477zM319 317h158v160h-158v-160z" />
<glyph d="M0 0h797v795h-797v-795zM160 158v479h477v-479h-477zM319 317h158v160h-158v-160z" />
<glyph d="M0 0h797v795h-797v-795zM160 158v479h477v-479h-477zM319 317h158v160h-158v-160z" />
<glyph d="M0 0h797v795h-797v-795zM160 158v479h477v-479h-477zM319 317h158v160h-158v-160z" />
<glyph d="M0 0h797v795h-797v-795zM160 158v479h477v-479h-477zM319 317h158v160h-158v-160z" />
<glyph d="M0 0h797v795h-797v-795zM160 158v479h477v-479h-477zM319 317h158v160h-158v-160z" />
<glyph d="M0 0h797v795h-797v-795zM160 158v479h477v-479h-477zM317 317h160v160h-160v-160z" />
<glyph d="M0 0h797v795h-797v-795zM160 158v479h477v-479h-477zM317 317h160v160h-160v-160z" />
<glyph unicode="&#xa0;" />
<glyph unicode="&#xa1;" horiz-adv-x="319" d="M0 0h160v477h-160v-477zM0 637h160v158h-160v-158z" />
<glyph unicode="&#xa2;" horiz-adv-x="954" d="M0 0h317v-160h160v160h318v158h-637v479h637v158h-318v159h-160v-159h-317v-795z" />
<glyph unicode="&#xa3;" d="M0 0h797v158h-478v159h160v160h-160v160h318v158h-637v-158h160v-160h-160v-160h160v-159h-160v-158zM637 477h160v160h-160v-160z" />
<glyph unicode="&#xa4;" d="M0 0h160v158h-160v-158zM0 637h160v158h-160v-158zM160 158h477v479h-477v-479zM317 317v160h160v-160h-160zM637 0h160v158h-160v-158zM637 637h160v158h-160v-158z" />
<glyph unicode="&#xa5;" horiz-adv-x="954" d="M0 477h158v-160h159v-159h-159v-158h479v158h-160v159h160v160h158v318h-158v-158h-479v158h-158v-318z" />
<glyph unicode="&#xa6;" horiz-adv-x="319" d="M0 -160h160v477h-160v-477zM0 477h160v477h-160v-477z" />
<glyph unicode="&#xa7;" d="M0 0v-160h797v797h-637v158h637v159h-797v-796h637v-158h-637zM160 317v160h477v-160h-477z" />
<glyph unicode="&#xa8;" d="M0 795h319v319h-319v-319zM479 795h318v319h-318v-319z" />
<glyph unicode="&#xa9;" d="M0 0h160v158h477v-158h160v795h-160v-158h-477v158h-160v-795zM160 0v-160h477v160h-477zM160 795h477v159h-477v-159zM319 317v160h318v-160h-318z" />
<glyph unicode="&#xaa;" horiz-adv-x="477" d="M0 477h317v637h-317v-160h160v-159h-160v-318z" />
<glyph unicode="&#xab;" d="M0 317h160v160h-160v-160zM160 158h159v159h-159v-159zM160 477h159v160h-159v-160zM477 317h160v160h-160v-160zM637 158h160v159h-160v-159zM637 477h160v160h-160v-160z" />
<glyph unicode="&#xac;" d="M0 477h637v-160h160v320h-797v-160z" />
<glyph unicode="&#xad;" horiz-adv-x="638" d="M0 317h479v160h-479v-160z" />
<glyph unicode="&#xae;" d="M0 0h160v158h159v159h160v160h160v-160h-160v-159h160v-158h158v795h-158v-158h-479v158h-160v-795zM160 0v-160h479v160h-479zM160 795h479v159h-479v-159z" />
<glyph unicode="&#xaf;" d="M0 954h797v160h-797v-160z" />
<glyph unicode="&#xb0;" horiz-adv-x="636" d="M0 637h477v477h-477v-477zM160 795v159h157v-159h-157z" />
<glyph unicode="&#xb1;" d="M0 0h797v158h-797v-158zM0 477h317v-160h160v160h320v160h-320v158h-160v-158h-317v-160z" />
<glyph unicode="&#xb2;" horiz-adv-x="636" d="M0 477h477v160h-160v158h-317v-318zM0 954h317v-159h160v319h-477v-160z" />
<glyph unicode="&#xb3;" horiz-adv-x="636" d="M0 477h477v637h-477v-160h158v-159h159v-158h-317v-160z" />
<glyph unicode="&#xb4;" horiz-adv-x="477" d="M0 795h160v159h-160v-159zM160 954h157v160h-157v-160z" />
<glyph unicode="&#xb5;" d="M0 -319h160v319h637v795h-160v-637h-477v637h-160v-1114z" />
<glyph unicode="&#xb6;" d="M0 317h317v-317h160v637h160v-637h160v795h-797v-478z" />
<glyph unicode="&#xb7;" horiz-adv-x="638" d="M0 158h479v479h-479v-479z" />
<glyph unicode="&#xb8;" horiz-adv-x="479" d="M0 -160v-159h319v319h-159v-160h-160z" />
<glyph unicode="&#xb9;" horiz-adv-x="477" d="M0 795h160v-318h157v637h-157v-160h-160v-159z" />
<glyph unicode="&#xba;" horiz-adv-x="636" d="M0 477h477v637h-477v-637zM160 637v317h159v-317h-159z" />
<glyph unicode="&#xbb;" d="M0 158h160v159h-160v-159zM0 477h160v160h-160v-160zM160 317h159v160h-159v-160zM479 158h158v159h-158v-159zM479 477h158v160h-158v-160zM637 317h160v160h-160v-160z" />
<glyph unicode="&#xbc;" d="M0 0h160v158h-160v-158zM0 317h160v637h-160v-637zM160 158h157v-158h320v-160h160v637h-160v-319h-160v319h-160v-160h-157v-159zM477 477h160v160h-160v-160zM637 637h160v158h-160v-158z" />
<glyph unicode="&#xbd;" horiz-adv-x="954" d="M0 0h158v158h-158v-158zM0 317h158v637h-158v-637zM158 158h159v159h-159v-159zM317 158v-318h478v160h-158v158h-320zM317 317h320v-159h158v319h-158v160h-160v-160h-160v-160zM637 637h158v158h-158v-158z" />
<glyph unicode="&#xbe;" d="M0 0h160v158h-160v-158zM0 317h160v-159h159v-158h318v-160h160v637h-160v-319h-158v319h158v160h-158v317h-479v-159h160v-158h159v-160h-319v-160zM637 637h160v158h-160v-158z" />
<glyph unicode="&#xbf;" d="M0 0h797v158h-637v159h317v160h-477v-477zM319 637h158v158h-158v-158z" />
<glyph unicode="&#xc0;" d="M0 0h158v317h479v-317h160v795h-320v159h-160v-159h-317v-795zM158 477v160h479v-160h-479zM158 954h159v160h-159v-160z" />
<glyph unicode="&#xc1;" d="M0 0h160v317h477v-317h160v795h-318v159h-160v-159h-319v-795zM160 477v160h477v-160h-477zM479 954h158v160h-158v-160z" />
<glyph unicode="&#xc2;" d="M0 0h160v317h477v-317h160v795h-160v159h-160v-159h-158v159h-159v-159h-160v-795zM160 477v160h477v-160h-477zM319 954h158v160h-158v-160z" />
<glyph unicode="&#xc3;" d="M0 0h158v317h479v-317h160v1114h-160v-160h-160v160h-477v-1114zM158 477v160h479v-160h-479zM158 795v159h159v-159h-159z" />
<glyph unicode="&#xc4;" d="M0 0h160v317h477v-317h160v1114h-318v-319h-160v319h-319v-1114zM160 477v160h477v-160h-477z" />
<glyph unicode="&#xc5;" d="M0 0h160v317h477v-317h160v795h-160v319h-477v-319h-160v-795zM160 477v160h477v-160h-477zM319 795v159h158v-159h-158z" />
<glyph unicode="&#xc6;" d="M0 0h158v317h159v-317h480v158h-320v159h320v160h-320v160h320v158h-797v-795zM158 477v160h159v-160h-159z" />
<glyph unicode="&#xc7;" d="M0 0h319v-160h-159v-159h319v319h318v158h-637v479h637v158h-797v-795z" />
<glyph unicode="&#xc8;" d="M0 0h797v158h-637v159h317v160h-317v160h637v158h-320v159h-158v-159h-319v-795zM160 954h159v160h-159v-160z" />
<glyph unicode="&#xc9;" d="M0 0h797v158h-637v159h317v160h-317v160h637v158h-320v159h-158v-159h-319v-795zM477 954h160v160h-160v-160z" />
<glyph unicode="&#xca;" d="M0 0h797v158h-639v159h319v160h-319v160h639v158h-160v159h-160v-159h-160v159h-159v-159h-158v-795zM317 954h160v160h-160v-160z" />
<glyph unicode="&#xcb;" d="M0 0h797v158h-637v159h319v160h-319v160h637v477h-318v-319h-160v319h-319v-1114z" />
<glyph unicode="&#xcc;" d="M0 0h797v158h-320v479h320v158h-320v159h-158v-159h-319v-158h319v-479h-319v-158zM160 954h159v160h-159v-160z" />
<glyph unicode="&#xcd;" d="M0 0h797v158h-320v479h320v158h-320v159h-160v-159h-317v-158h317v-479h-317v-158zM477 954h160v160h-160v-160z" />
<glyph unicode="&#xce;" d="M0 0h797v158h-318v479h318v158h-160v159h-158v-159h-160v159h-159v-159h-160v-158h319v-479h-319v-158zM319 954h160v160h-160v-160z" />
<glyph unicode="&#xcf;" d="M0 0h797v158h-320v479h320v477h-320v-319h-158v319h-319v-477h319v-479h-319v-158z" />
<glyph unicode="&#xd0;" d="M0 0h637v158h-479v159h159v160h-159v160h479v158h-637v-795zM637 158h160v479h-160v-479z" />
<glyph unicode="&#xd1;" d="M0 0h160v477h159v160h-159v317h159v-159h318v-478h-158v-159h158v-158h160v1114h-160v-160h-158v160h-479v-1114zM319 317h160v160h-160v-160z" />
<glyph unicode="&#xd2;" d="M0 0h797v795h-320v159h-158v-159h-319v-795zM160 158v479h477v-479h-477zM160 954h159v160h-159v-160z" />
<glyph unicode="&#xd3;" d="M0 0h797v795h-320v159h-158v-159h-319v-795zM160 158v479h477v-479h-477zM477 954h160v160h-160v-160z" />
<glyph unicode="&#xd4;" d="M0 0h797v795h-160v159h-160v-159h-160v159h-159v-159h-158v-795zM158 158v479h479v-479h-479zM317 954h160v160h-160v-160z" />
<glyph unicode="&#xd5;" d="M0 0h797v1114h-160v-160h-158v160h-479v-1114zM160 158v479h477v-479h-477zM160 795v159h159v-159h-159z" />
<glyph unicode="&#xd6;" d="M0 0h797v1114h-320v-319h-158v319h-319v-1114zM160 158v479h477v-479h-477z" />
<glyph unicode="&#xd7;" horiz-adv-x="636" d="M0 158h158v159h-158v-159zM0 477h158v160h-158v-160zM158 317h159v160h-159v-160zM317 158h160v159h-160v-159zM317 477h160v160h-160v-160z" />
<glyph unicode="&#xd8;" d="M0 0h797v795h-797v-795zM160 317v320h317v-160h160v-319h-320v159h-157zM317 317h160v160h-160v-160z" />
<glyph unicode="&#xd9;" d="M0 0h797v795h-158v-637h-479v637h-160v-795zM160 954h159v160h-159v-160zM319 795h160v159h-160v-159z" />
<glyph unicode="&#xda;" d="M0 0h797v795h-160v-637h-477v637h-160v-795zM319 795h158v159h-158v-159zM477 954h160v160h-160v-160z" />
<glyph unicode="&#xdb;" d="M0 0h797v795h-160v-637h-477v637h-160v-795zM160 795h157v159h-157v-159zM317 954h160v160h-160v-160zM477 795h160v159h-160v-159z" />
<glyph unicode="&#xdc;" d="M0 0h797v1114h-318v-319h160v-637h-479v637h159v319h-319v-1114z" />
<glyph unicode="&#xdd;" d="M0 317h319v-317h158v317h320v478h-160v-318h-477v318h-160v-478zM319 795h158v159h-158v-159zM477 954h160v160h-160v-160z" />
<glyph unicode="&#xde;" d="M0 -160h158v160h479v158h-479v479h479v158h-479v159h-158v-1114zM637 158h160v479h-160v-479z" />
<glyph unicode="&#xdf;" d="M0 0h160v317h477v160h-477v160h477v-160h160v318h-797v-795zM319 0h478v317h-160v-159h-318v-158z" />
<glyph unicode="&#xe0;" d="M0 0h160v317h477v-317h160v795h-320v159h-158v-159h-319v-795zM160 477v160h477v-160h-477zM160 954h159v160h-159v-160z" />
<glyph unicode="&#xe1;" d="M0 0h158v317h479v-317h160v795h-320v159h-160v-159h-317v-795zM158 477v160h479v-160h-479zM477 954h160v160h-160v-160z" />
<glyph unicode="&#xe2;" d="M0 0h160v317h477v-317h160v795h-160v159h-158v-159h-160v159h-159v-159h-160v-795zM160 477v160h477v-160h-477zM319 954h160v160h-160v-160z" />
<glyph unicode="&#xe3;" d="M0 0h160v317h477v-317h160v1114h-160v-160h-160v160h-477v-1114zM160 477v160h477v-160h-477zM160 795v159h159v-159h-159z" />
<glyph unicode="&#xe4;" d="M0 0h158v317h479v-317h160v1114h-320v-319h-160v319h-317v-1114zM158 477v160h479v-160h-479z" />
<glyph unicode="&#xe5;" d="M0 0h160v317h477v-317h160v795h-160v319h-477v-319h-160v-795zM160 477v160h477v-160h-477zM319 795v159h160v-159h-160z" />
<glyph unicode="&#xe6;" d="M0 0h160v317h159v-317h478v158h-320v159h320v160h-320v160h320v158h-797v-795zM160 477v160h159v-160h-159z" />
<glyph unicode="&#xe7;" d="M0 0h319v-160h-159v-159h319v319h318v158h-637v479h637v158h-797v-795z" />
<glyph unicode="&#xe8;" d="M0 0h797v158h-637v159h317v160h-317v160h637v158h-320v159h-158v-159h-319v-795zM160 954h159v160h-159v-160z" />
<glyph unicode="&#xe9;" d="M0 0h797v158h-637v159h317v160h-317v160h637v158h-320v159h-160v-159h-317v-795zM477 954h160v160h-160v-160z" />
<glyph unicode="&#xea;" d="M0 0h797v158h-637v159h319v160h-319v160h637v158h-158v159h-160v-159h-160v159h-159v-159h-160v-795zM319 954h160v160h-160v-160z" />
<glyph unicode="&#xeb;" d="M0 0h797v158h-637v159h317v160h-317v160h637v477h-320v-319h-158v319h-319v-1114z" />
<glyph unicode="&#xec;" horiz-adv-x="477" d="M0 0h160v795h-160v-795zM0 954h160v160h-160v-160zM160 795h157v159h-157v-159z" />
<glyph unicode="&#xed;" horiz-adv-x="479" d="M0 795h160v159h-160v-159zM160 0h159v795h-159v-795zM160 954h159v160h-159v-160z" />
<glyph unicode="&#xee;" horiz-adv-x="638" d="M0 795h160v159h-160v-159zM160 0h159v795h-159v-795zM160 954h159v160h-159v-160zM319 795h160v159h-160v-159z" />
<glyph unicode="&#xef;" horiz-adv-x="636" d="M0 795h158v319h-158v-319zM158 0h159v795h-159v-795zM317 795h160v319h-160v-319z" />
<glyph unicode="&#xf0;" d="M0 0h637v158h-479v159h159v160h-159v160h479v158h-637v-795zM637 158h160v479h-160v-479z" />
<glyph unicode="&#xf1;" d="M0 0h160v637h477v-637h160v1114h-160v-160h-160v160h-477v-1114zM160 795v159h159v-159h-159z" />
<glyph unicode="&#xf2;" d="M0 0h797v795h-320v159h-160v-159h-317v-795zM158 158v479h479v-479h-479zM158 954h159v160h-159v-160z" />
<glyph unicode="&#xf3;" d="M0 0h797v795h-318v159h-160v-159h-319v-795zM160 158v479h477v-479h-477zM479 954h158v160h-158v-160z" />
<glyph unicode="&#xf4;" d="M0 0h797v795h-160v159h-160v-159h-158v159h-159v-159h-160v-795zM160 158v479h477v-479h-477zM319 954h158v160h-158v-160z" />
<glyph unicode="&#xf5;" d="M0 0h797v1114h-160v-160h-160v160h-477v-1114zM158 158v479h479v-479h-479zM158 795v159h159v-159h-159z" />
<glyph unicode="&#xf6;" d="M0 0h797v1114h-318v-319h-160v319h-319v-1114zM160 158v479h477v-479h-477z" />
<glyph unicode="&#xf7;" horiz-adv-x="636" d="M0 317h477v160h-477v-160zM160 0h159v158h-159v-158zM160 637h159v158h-159v-158z" />
<glyph unicode="&#xf8;" d="M0 0h797v795h-797v-795zM160 317v320h317v-160h160v-319h-318v159h-159zM319 317h158v160h-158v-160z" />
<glyph unicode="&#xf9;" d="M0 0h797v795h-160v-637h-477v637h-160v-795zM160 954h157v160h-157v-160zM317 795h160v159h-160v-159z" />
<glyph unicode="&#xfa;" d="M0 0h797v795h-158v-637h-479v637h-160v-795zM319 795h160v159h-160v-159zM479 954h160v160h-160v-160z" />
<glyph unicode="&#xfb;" d="M0 0h797v795h-160v-637h-477v637h-160v-795zM160 795h159v159h-159v-159zM319 954h158v160h-158v-160zM477 795h160v159h-160v-159z" />
<glyph unicode="&#xfc;" d="M0 0h797v1114h-320v-319h160v-637h-479v637h159v319h-317v-1114z" />
<glyph unicode="&#xfd;" d="M0 637h160v158h-160v-158zM160 477h159v160h-159v-160zM319 0h160v477h-160v-477zM319 795h160v159h-160v-159zM479 477h158v160h-158v-160zM479 954h158v160h-158v-160zM637 637h160v158h-160v-158z" />
<glyph unicode="&#xfe;" d="M0 -319h160v319h477v158h-477v479h477v158h-477v319h-160v-1433zM637 158h160v479h-160v-479z" />
<glyph unicode="&#xff;" d="M0 637h158v158h159v319h-317v-477zM158 477h159v160h-159v-160zM317 0h160v477h-160v-477zM477 477h160v160h-160v-160zM477 795h160v-158h160v477h-320v-319z" />
<glyph unicode="&#x152;" d="M0 0h797v158h-318v159h318v160h-318v160h318v158h-797v-795zM160 158v479h159v-479h-159z" />
<glyph unicode="&#x153;" d="M0 0h797v158h-318v159h318v160h-318v160h318v158h-797v-795zM160 158v479h159v-479h-159z" />
<glyph unicode="&#x178;" d="M0 317h319v-317h160v317h318v797h-318v-319h158v-318h-477v318h159v319h-319v-797z" />
<glyph unicode="&#x2c6;" horiz-adv-x="636" d="M0 795h160v159h-160v-159zM160 954h159v160h-159v-160zM319 795h158v159h-158v-159z" />
<glyph unicode="&#x2dc;" d="M0 795h160v159h157v-159h480v319h-160v-160h-160v160h-477v-319z" />
<glyph unicode="&#x2000;" horiz-adv-x="682" />
<glyph unicode="&#x2001;" horiz-adv-x="1365" />
<glyph unicode="&#x2002;" horiz-adv-x="682" />
<glyph unicode="&#x2003;" horiz-adv-x="1365" />
<glyph unicode="&#x2004;" horiz-adv-x="455" />
<glyph unicode="&#x2005;" horiz-adv-x="341" />
<glyph unicode="&#x2006;" horiz-adv-x="227" />
<glyph unicode="&#x2007;" horiz-adv-x="227" />
<glyph unicode="&#x2008;" horiz-adv-x="170" />
<glyph unicode="&#x2009;" horiz-adv-x="273" />
<glyph unicode="&#x200a;" horiz-adv-x="75" />
<glyph unicode="&#x2010;" d="M0 317h797v160h-797v-160z" />
<glyph unicode="&#x2011;" d="M0 317h797v160h-797v-160z" />
<glyph unicode="&#x2012;" d="M0 317h797v160h-797v-160z" />
<glyph unicode="&#x2013;" horiz-adv-x="477" d="M0 317h317v160h-317v-160z" />
<glyph unicode="&#x2014;" horiz-adv-x="796" d="M0 317h637v160h-637v-160z" />
<glyph unicode="&#x2018;" horiz-adv-x="317" d="M0 795h158v319h-158v-319z" />
<glyph unicode="&#x2019;" horiz-adv-x="319" d="M0 795h160v319h-160v-319z" />
<glyph unicode="&#x201a;" horiz-adv-x="319" d="M0 158v-318h160v318h-160z" />
<glyph unicode="&#x201c;" horiz-adv-x="636" d="M0 795h160v319h-160v-319zM317 795h160v319h-160v-319z" />
<glyph unicode="&#x201d;" horiz-adv-x="636" d="M0 795h160v319h-160v-319zM317 795h160v319h-160v-319z" />
<glyph unicode="&#x201e;" horiz-adv-x="636" d="M0 158v-318h160v318h-160zM319 158v-318h158v318h-158z" />
<glyph unicode="&#x2022;" d="M0 317h160v-159h159v-158h158v158h160v159h160v160h-160v160h-160v158h-158v-158h-159v-160h-160v-160z" />
<glyph unicode="&#x2026;" d="M0 0h160v158h-160v-158zM319 0h158v158h-158v-158zM637 0h160v158h-160v-158z" />
<glyph unicode="&#x202f;" horiz-adv-x="273" />
<glyph unicode="&#x2039;" horiz-adv-x="477" d="M0 317h160v160h-160v-160zM160 158h157v159h-157v-159zM160 477h157v160h-157v-160z" />
<glyph unicode="&#x203a;" horiz-adv-x="477" d="M0 158h160v159h-160v-159zM0 477h160v160h-160v-160zM160 317h157v160h-157v-160z" />
<glyph unicode="&#x205f;" horiz-adv-x="341" />
<glyph unicode="&#x2122;" horiz-adv-x="954" d="M0 317v-636h158v319h159v158h-159v159h-158zM0 954h317v-477h160v477h318v160h-795v-160zM317 0v-160h160v160h-160zM477 0h160v-319h158v636h-158v-159h-160v-158z" />
<glyph unicode="&#x25fc;" horiz-adv-x="798" d="M0 0v799h799v-799h-799z" />
</font>
</defs>
</svg>
